<svg xmlns:dc="http://purl.org/dc/elements/1.1/" xmlns:cc="http://creativecommons.org/ns#" xmlns:rdf="http://www.w3.org/1999/02/22-rdf-syntax-ns#" xmlns:svg="http://www.w3.org/2000/svg" xmlns="http://www.w3.org/2000/svg" xmlns:sodipodi="http://sodipodi.sourceforge.net/DTD/sodipodi-0.dtd" xmlns:inkscape="http://www.inkscape.org/namespaces/inkscape" version="1.1" id="svg869" width="50" height="40" viewBox="0 0 35 30">
  <g inkscape:groupmode="layer" id="layer1" inkscape:label="Layer 1">
    <path style="fill:#404040;fill-opacity:1;stroke:#404040;stroke-width:0.75120807;stroke-linecap:round;stroke-linejoin:round;stroke-miterlimit:4;stroke-dasharray:none;stroke-opacity:1" d="m 16.815884,0.93129169 c -0.165401,0.0895 -0.254138,0.62490201 -0.254138,0.62490201 l -0.145221,1.394011 c 0,0 -0.140211,1.319233 -0.07261,1.970844 0.02083,0.200793 0.145221,0.576832 0.145221,0.576832 0,0 0.288892,0.111386 0.435665,0.09614 0.152608,-0.01586 0.341458,-0.03253 0.435664,-0.192277 0.291315,-0.494006 0.03432,-1.255789 0.108916,-1.874705 0.08835,-0.732994 0.675513,-1.517153 0.399358,-2.16312 -0.181009,-0.42341101 -0.7127,-0.61668401 -1.052854,-0.43262501 z" id="path1156" inkscape:connector-curvature="0" sodipodi:nodetypes="sccacasaas"/>
    <path style="fill:#404040;fill-opacity:1;stroke:#404040;stroke-width:0.79768252px;stroke-linecap:round;stroke-linejoin:round;stroke-opacity:1" d="m 21.764618,1.6656377 c -0.131772,0.06842 -0.27407,0.398753 -0.27407,0.398753 0,0 -0.413094,1.499626 -0.496531,2.278138 -0.03794,0.354003 0,1.070755 0,1.070755 0,0 0.563866,0.57246 0.851719,0.438036 0.704868,-0.329166 0.708044,-1.615569 0.932836,-2.482206 0.134767,-0.519567 0.522533,-1.177345 0.243348,-1.606134 -0.258572,-0.397129 -0.87186,-0.297466 -1.257302,-0.09734 z" id="path1158" inkscape:connector-curvature="0" sodipodi:nodetypes="acacaaaa"/>
    <path style="fill:#404040;fill-opacity:1;stroke:#404040;stroke-width:0.87542278px;stroke-linecap:round;stroke-linejoin:round;stroke-opacity:1" d="m 26.62841,4.0922557 c -0.588873,0.468646 -0.939905,1.255985 -1.136444,2.00837 -0.04634,0.177421 0,0.552302 0,0.552302 0,0 0.320022,0.481829 0.568222,0.552302 0.281137,0.07982 0.620739,-0.01394 0.852333,-0.200837 0.455114,-0.367289 0.609986,-1.036582 0.804981,-1.606696 0.104487,-0.305492 0.247363,-0.634877 0.189408,-0.953976 -0.04305,-0.237021 -0.165988,-0.516863 -0.378815,-0.602512 -0.289927,-0.116675 -0.651665,0.05366 -0.899685,0.251047 z" id="path1160" inkscape:connector-curvature="0" sodipodi:nodetypes="aacaaaaaa"/>
    <path style="fill:#404040;fill-opacity:1;stroke:#404040;stroke-width:0.90090376px;stroke-linecap:square;stroke-linejoin:round;stroke-opacity:1" d="m 29.322885,8.7311857 c -0.332222,0.213027 -0.850428,0.282657 -0.978862,0.6687944 -0.102159,0.307141 0.07008,0.7010039 0.293658,0.9260239 0.171576,0.172679 0.450506,0.244293 0.685204,0.205783 0.871778,-0.143044 2.202443,-1.5433723 2.202443,-1.5433723 l 0.09789,-0.463012 c 0,0 -0.06056,-0.453481 -0.195773,-0.61735 -0.09561,-0.115873 -0.245681,-0.210039 -0.391545,-0.205783 -0.657401,0.01919 -1.151577,0.668912 -1.713011,1.028916 z" id="path1162" inkscape:connector-curvature="0" sodipodi:nodetypes="aaaaccsaa"/>
    <path style="fill:#404040;fill-opacity:1;stroke:#404040;stroke-width:0.93860549px;stroke-linecap:round;stroke-linejoin:round;stroke-opacity:1" d="m 30.532423,13.104333 c -0.141971,0.201907 0,0.760485 0,0.760485 0,0 0.213139,0.230105 0.352197,0.271602 0.600074,0.179072 1.371692,0.251782 1.861616,-0.162961 0.125206,-0.105993 0.110104,-0.322862 0.150942,-0.488884 0.0439,-0.178467 0.13382,-0.36206 0.100628,-0.543203 -0.0352,-0.192132 -0.131805,-0.420747 -0.301883,-0.488884 -0.701953,-0.281218 -1.710786,0.008 -2.1635,0.651845 z" id="path1164" inkscape:connector-curvature="0" sodipodi:nodetypes="acaaaaaa"/>
    <path style="fill:#404040;fill-opacity:1;stroke:#404040;stroke-width:0.90848529px;stroke-linecap:round;stroke-linejoin:round;stroke-opacity:1" d="m 30.974502,16.665301 c -0.154482,0.05921 -0.280478,0.205243 -0.349873,0.358597 -0.08441,0.186536 -0.164034,0.445575 -0.04998,0.614738 0.137907,0.204545 0.46156,0.157787 0.699745,0.204912 0.476932,0.09436 1.007652,0.360541 1.449473,0.153684 0.184982,-0.0866 0.281334,-0.316035 0.349873,-0.51228 0.07321,-0.20962 0.04998,-0.665967 0.04998,-0.665967 0,0 -1.47657,-0.41151 -2.149218,-0.153684 z" id="path1166" inkscape:connector-curvature="0" sodipodi:nodetypes="aaaaaaca"/>
    <path style="fill:#404040;fill-opacity:1;stroke:#404040;stroke-width:0.86758786px;stroke-linecap:butt;stroke-linejoin:round;stroke-opacity:1" d="m 30.391307,20.216344 c -0.178926,0.0086 -0.499037,0.187172 -0.499037,0.187172 0,0 0.180879,0.585807 0.399229,0.795478 0.363813,0.349353 1.397303,0.655099 1.397303,0.655099 0,0 0.425801,0.09727 0.596152,-0.0051 0.180924,-0.108684 0.302114,-0.55645 0.302114,-0.55645 0,0 0.02507,-0.385494 -0.09981,-0.514721 -0.487887,-0.504883 -1.370293,-0.596317 -2.095953,-0.561515 z" id="path1168" inkscape:connector-curvature="0" sodipodi:nodetypes="ccacacaac"/>
    <path style="fill:#404040;fill-opacity:1;stroke:#404040;stroke-width:1px;stroke-linecap:round;stroke-linejoin:round;stroke-opacity:1" d="m 26.839377,23.681644 c -0.04836,0.813784 0.450711,1.862579 1.225364,2.116538 0.308109,0.101009 0.635239,-0.190813 0.891174,-0.389889 0.16709,-0.129969 0.376211,-0.290041 0.389889,-0.501285 0.04732,-0.730832 -0.539374,-1.439656 -1.113968,-1.893745 -0.198126,-0.156575 -0.48393,-0.300885 -0.724078,-0.222793 -0.353121,0.114829 -0.646355,0.520505 -0.668381,0.891174 z" id="path1170" inkscape:connector-curvature="0" sodipodi:nodetypes="aaaaaaa"/>
    <path style="fill:#404040;fill-opacity:1;stroke:#404040;stroke-width:0.92501521px;stroke-linecap:round;stroke-linejoin:round;stroke-opacity:1" d="m 23.317869,24.690154 c -0.53095,1.045935 -0.0033,2.724809 0.828138,3.487457 0.201297,0.18463 0.779424,0.05449 0.779424,0.05449 0,0 0.635707,-0.235187 0.73071,-0.544916 0.166647,-0.543301 -0.331477,-1.087383 -0.48714,-1.634745 -0.169737,-0.596851 0.0045,-1.498421 -0.48714,-1.798219 -0.415169,-0.253184 -1.130504,-0.02403 -1.363992,0.43593 z" id="path1172" inkscape:connector-curvature="0" sodipodi:nodetypes="aacaaaa"/>
    <path style="fill:#404040;fill-opacity:1;stroke:#404040;stroke-width:0.86836261px;stroke-linecap:round;stroke-linejoin:round;stroke-opacity:1" d="m 18.331414,25.164547 c -0.230374,0.189695 -0.217582,0.622576 -0.265312,0.952255 -0.118263,0.81684 -0.04422,2.486447 -0.04422,2.486447 0,0 -0.07952,0.807575 0.132657,1.058063 0.232957,0.275009 0.972811,0.158708 0.972811,0.158708 0,0 0.581639,-0.101667 0.7075,-0.370321 0.581962,-1.242203 -0.09288,-3.008792 -0.486406,-4.23225 -0.121869,-0.378887 -0.737506,-0.283069 -1.01703,-0.0529 z" id="path1174" inkscape:connector-curvature="0" sodipodi:nodetypes="cacacasac"/>
    <path style="fill:#404040;fill-opacity:1;stroke:#404040;stroke-width:0.79317564px;stroke-linecap:round;stroke-linejoin:round;stroke-opacity:1" d="m 13.83435,25.002179 c -0.432148,0.99445 -0.750084,1.785081 -0.976152,2.749214 -0.07198,0.306968 -0.212945,0.653627 -0.117138,0.949729 0.06774,0.209376 0.429507,0.399886 0.429507,0.399886 0,0 0.65901,0.396284 0.780922,0.09997 0.290106,-0.705113 0.819968,-2.0994 0.819968,-2.0994 0,0 0.50189,-1.196329 0.234277,-1.749502 -0.211109,-0.436375 -0.976463,-0.798447 -1.171384,-0.349899 z" id="path1176" inkscape:connector-curvature="0" sodipodi:nodetypes="saacscss"/>
    <path style="fill:#404040;fill-opacity:1;stroke:#404040;stroke-width:0.9234274px;stroke-linecap:round;stroke-linejoin:round;stroke-opacity:1" d="m 9.8795066,23.977549 -0.799519,0.942989 -0.533013,0.595573 -0.906121,0.99262 0.852821,0.595572 0.586313,0.347417 1.8122414,-2.680075 z" id="path1178" inkscape:connector-curvature="0" sodipodi:nodetypes="cccccccc"/>
    <path style="fill:#404040;fill-opacity:1;stroke:#404040;stroke-width:0.89267331px;stroke-linecap:round;stroke-linejoin:round;stroke-opacity:1" d="m 5.8011756,22.012436 c -0.580826,0.0284 -1.085653,0.711769 -1.300965,1.330156 -0.06907,0.198376 0.04646,0.638475 0.04646,0.638475 0,0 0.461737,0.523161 0.743408,0.478856 0.672673,-0.105807 1.488486,-0.873818 1.440353,-1.649393 -0.02745,-0.442271 -0.542421,-0.817011 -0.929261,-0.798094 z" id="path1180" inkscape:connector-curvature="0" sodipodi:nodetypes="sacsas"/>
    <path style="fill:#404040;fill-opacity:1;stroke:#404040;stroke-width:0.89009553px;stroke-linecap:round;stroke-linejoin:round;stroke-opacity:1" d="m 2.0312896,18.463083 c -0.241438,0.297212 -0.125444,0.83679 0.0477,1.185186 0.102295,0.205837 0.524678,0.412239 0.524678,0.412239 0,0 1.30005,-0.04462 1.764822,-0.463768 0.12021,-0.108411 0.190792,-0.463769 0.190792,-0.463769 0,0 -0.08419,-0.711832 -0.333886,-0.876008 -0.627115,-0.41233 -1.709865,-0.389984 -2.194106,0.20612 z" id="path1182" inkscape:connector-curvature="0" sodipodi:nodetypes="aacacaa"/>
    <path style="fill:#404040;fill-opacity:1;stroke:#404040;stroke-width:0.90670758px;stroke-linecap:round;stroke-linejoin:round;stroke-opacity:1" d="m 1.6697086,14.270376 c -0.271033,0.252321 0,1.03259 0,1.03259 v 0 c 0,0 0.387322,0.165305 0.597732,0.187744 0.524104,0.05589 1.094197,0.04623 1.575841,-0.140807 0.26893,-0.104436 0.629374,-0.262365 0.652071,-0.516296 0.02678,-0.299645 -0.33305,-0.584077 -0.652071,-0.704038 -0.66617,-0.2505 -1.679404,-0.319246 -2.173573,0.140807 z" id="path1184" inkscape:connector-curvature="0" sodipodi:nodetypes="acaaaaaa"/>
    <path style="fill:#404040;fill-opacity:1;stroke:#404040;stroke-width:0.90386277px;stroke-linecap:round;stroke-linejoin:round;stroke-opacity:1" d="m 1.5289156,9.5168921 c -0.309294,0.119941 -0.49683,0.5141659 -0.470604,0.8239949 0.02045,0.24161 0.470604,0.581644 0.470604,0.581644 0,0 1.456136,0.947633 2.196157,0.727055 0.524719,-0.156403 1.123409,-0.778028 0.941211,-1.260229 -0.360918,-0.9551949 -2.13012,-1.2630639 -3.137368,-0.8724649 z" id="path1186" inkscape:connector-curvature="0" sodipodi:nodetypes="aacssa"/>
    <path style="fill:#404040;fill-opacity:1;stroke:#404040;stroke-width:1px;stroke-linecap:round;stroke-linejoin:round;stroke-opacity:1" d="m 4.3929346,6.0809597 c -0.30002,0.05208 -0.538121,0.420157 -0.556984,0.724079 -0.02268,0.365478 0.556984,0.946872 0.556984,0.946872 0,0 0.890128,0.682042 1.392459,0.612682 0.405034,-0.05593 0.970897,-0.371607 0.946872,-0.779777 -0.05447,-0.925404 -1.425985,-1.662408 -2.339331,-1.503856 z" id="path1188" inkscape:connector-curvature="0" sodipodi:nodetypes="sscsss"/>
    <path style="fill:#404040;fill-opacity:1;stroke:#404040;stroke-width:1px;stroke-linecap:round;stroke-linejoin:round;stroke-opacity:1" d="m 6.7879646,3.3517397 c -0.394843,0.786976 1.113967,2.39503 1.113967,2.39503 0,0 0.35519,0.443603 0.612682,0.501285 0.224096,0.0502 0.478002,-0.03866 0.668381,-0.167095 0.209343,-0.141227 0.436989,-0.360302 0.445587,-0.612682 0.0321,-0.94213 -0.636461,-2.025889 -1.503856,-2.39503 -0.418806,-0.178233 -1.13265,-0.12833 -1.336761,0.278492 z" id="path1190" inkscape:connector-curvature="0" sodipodi:nodetypes="scaaass"/>
    <path style="fill:#404040;fill-opacity:1;stroke:#404040;stroke-width:0.88397425px;stroke-linecap:round;stroke-linejoin:round;stroke-opacity:1" d="m 11.728791,1.5406007 c -0.156655,0.21506 -0.02117,0.553423 0,0.828642 0.04698,0.610825 0.280846,1.812656 0.280846,1.812656 0,0 0.09229,1.015627 0.421269,1.294754 0.149089,0.126499 0.561692,0.05179 0.561692,0.05179 0,0 0.466541,-0.147044 0.561691,-0.362532 0.359366,-0.813855 -0.12242,-1.81622 -0.327653,-2.693088 -0.09661,-0.412758 -0.0816,-0.989807 -0.421269,-1.191174 -0.323703,-0.191902 -0.846124,-0.05742 -1.076576,0.25895 z" id="path1192" inkscape:connector-curvature="0" sodipodi:nodetypes="aacacaaaa"/>
    <path style="fill:none;stroke:#404040;stroke-width:1px;stroke-linecap:round;stroke-linejoin:round;stroke-opacity:1" d="m 7.6791386,9.3114651 c 0,0 -1.299865,0.9489679 -1.448158,1.6709499 -0.184291,0.89724 0.835476,2.617824 0.835476,2.617824 l 1.00257,0.779777 0.167095,3.843188 c 0,0 -1.544312,0.652245 -1.559554,1.33676 -0.0091,0.407086 0.891174,0.835476 0.891174,0.835476 l 2.39503,0.33419 c 0,0 0.1054284,0.735559 0.3898884,0.891174 1.352308,0.739787 4.567266,-0.724079 4.567266,-0.724079 l 0.222793,-5.681233" id="path1194" inkscape:connector-curvature="0" sodipodi:nodetypes="cscccaccacc"/>
    <path style="fill:none;stroke:#000000;stroke-width:1px;stroke-linecap:butt;stroke-linejoin:miter;stroke-opacity:1" d="M 15.142719,15.215492 Z" id="path1196" inkscape:connector-curvature="0"/>
    <path style="fill:none;stroke:#404040;stroke-width:1px;stroke-linecap:round;stroke-linejoin:round;stroke-opacity:1" d="m 15.198418,17.443426 2.562125,0.0557 1.782348,-1.838046 -1.838047,1.838046 c 0,0 0.02796,1.596133 0.445587,2.227935 0.235692,0.356568 0.63771,0.647781 1.058269,0.724078 1.147541,0.208185 2.33012,-0.365715 3.397601,-0.835475 0.367625,-0.161778 1.002571,-0.668381 1.002571,-0.668381 l 0.501285,1.670952 c 0,0 0.601215,0.829678 1.058269,0.891173 0.526905,0.07089 1.086316,-0.278861 1.448158,-0.66838 0.431851,-0.464882 0.538792,-1.161206 0.66838,-1.782348 0.07214,-0.345799 0.0557,-1.058269 0.0557,-1.058269 l -0.556983,-0.779777 c 0,0 -1.053555,-0.462859 -1.615253,-0.556984 -0.549324,-0.09205 -1.670951,0 -1.670951,0 l 1.559554,-1.726649 0.501286,-1.559555 c 0,0 0.823187,0.168854 1.169665,0.389889 0.387532,0.247226 0.764571,0.58059 0.946873,1.002571 0.125389,0.290243 0.134406,0.640655 0.0557,0.946872 -0.147463,0.573725 -0.946872,1.503856 -0.946872,1.503856" id="path1198" inkscape:connector-curvature="0" sodipodi:nodetypes="ccccaaaccaaaccacccsaac"/>
    <path style="fill:none;stroke:#404040;stroke-width:1px;stroke-linecap:round;stroke-linejoin:round;stroke-opacity:1" d="m 25.558313,13.377447 c 0,0 0.399168,-1.639027 0.0557,-2.339332 -0.192948,-0.393407 -0.643576,-0.638255 -1.058269,-0.779777 -0.773328,-0.2639129 -2.450728,-0.0557 -2.450728,-0.0557 l -3.78749,0.222794 c 0,0 -1.906265,0.316103 -2.840617,0.556983 -0.528757,0.136316 -1.061556,0.72526 -1.559554,0.501286 -0.462476,-0.207998 -0.331498,-0.970462 -0.612682,-1.39246 -0.298551,-0.4480629 -0.660941,-0.8786989 -1.113967,-1.1696643 -0.479204,-0.307778 -1.615252,-0.556984 -1.615252,-0.556984 -0.5755504,0.09283 -1.2204744,-0.01075 -1.7266504,0.278492 l -1.169665,0.6683804" id="path1200" inkscape:connector-curvature="0" sodipodi:nodetypes="cssccsssscsc"/>
    <path style="fill:none;stroke:#404040;stroke-width:1px;stroke-linecap:round;stroke-linejoin:round;stroke-opacity:1" d="m 8.0690266,14.380016 2.9520134,0.33419 0.501285,4.400172 -1.5595534,1.615252 v 0" id="path1202" inkscape:connector-curvature="0"/>
  </g>
</svg>
